Monda-Bold.ufo
<glyph name="quotedbl" format="1">
  <advance width="1024"/>
  <unicode hex="0022"/>
  <outline>
    <contour>
      <point x="277" y="872" type="line"/>
      <point x="396" y="872" type="line"/>
      <point x="451" y="1516" type="line"/>
      <point x="198" y="1516" type="line"/>
    </contour>
    <contour>
      <point x="630" y="872" type="line"/>
      <point x="749" y="872" type="line"/>
      <point x="826" y="1516" type="line"/>
      <point x="572" y="1516" type="line"/>
    </contour>
  </outline>
</glyph>
<glyph name="quotesingle" format="1">
  <advance width="769"/>
  <unicode hex="0027"/>
  <outline>
    <contour>
      <point x="337" y="872" type="line"/>
      <point x="456" y="872" type="line"/>
      <point x="511" y="1516" type="line"/>
      <point x="258" y="1516" type="line"/>
    </contour>
  </outline>
</glyph>
<glyph name="hyphen" format="1">
  <advance width="968"/>
  <unicode hex="002D"/>
  <outline>
    <contour>
      <point x="132" y="494" type="line"/>
      <point x="836" y="494" type="line"/>
      <point x="836" y="642" type="line"/>
      <point x="132" y="642" type="line"/>
    </contour>
    <contour>
      <point x="476" y="569" type="move" name="_mid"/>
    </contour>
  </outline>
</glyph>
<glyph name="equal" format="1">
  <advance width="880"/>
  <unicode hex="003D"/>
  <outline>
    <contour>
      <point x="112" y="371" type="line"/>
      <point x="768" y="371" type="line"/>
      <point x="768" y="544" type="line"/>
      <point x="112" y="544" type="line"/>
    </contour>
    <contour>
      <point x="112" y="740" type="line"/>
      <point x="768" y="740" type="line"/>
      <point x="768" y="913" type="line"/>
      <point x="112" y="913" type="line"/>
    </contour>
  </outline>
</glyph>
<glyph name="I" format="1">
  <advance width="1148"/>
  <unicode hex="0049"/>
  <outline>
    <contour>
      <point x="158" y="0" type="line"/>
      <point x="990" y="0" type="line"/>
      <point x="990" y="222" type="line"/>
      <point x="723" y="222" type="line"/>
      <point x="723" y="1255" type="line"/>
      <point x="990" y="1255" type="line"/>
      <point x="990" y="1476" type="line"/>
      <point x="158" y="1476" type="line"/>
      <point x="158" y="1255" type="line"/>
      <point x="427" y="1255" type="line"/>
      <point x="427" y="222" type="line"/>
      <point x="158" y="222" type="line"/>
    </contour>
    <contour>
      <point x="583" y="0" type="move" name="ogonek"/>
    </contour>
    <contour>
      <point x="596" y="1476" type="move" name="top"/>
    </contour>
  </outline>
</glyph>
<glyph name="J" format="1">
  <advance width="1222"/>
  <unicode hex="004A"/>
  <outline>
    <contour>
      <point x="504" y="-25" type="curve" smooth="yes"/>
      <point x="835" y="-25"/>
      <point x="1036" y="138"/>
      <point x="1036" y="422" type="curve" smooth="yes"/>
      <point x="1036" y="1476" type="line"/>
      <point x="231" y="1476" type="line"/>
      <point x="231" y="1250" type="line"/>
      <point x="739" y="1250" type="line"/>
      <point x="739" y="441" type="line" smooth="yes"/>
      <point x="739" y="313"/>
      <point x="671" y="209"/>
      <point x="485" y="209" type="curve" smooth="yes"/>
      <point x="381" y="209"/>
      <point x="236" y="242"/>
      <point x="139" y="287" type="curve"/>
      <point x="70" y="67" type="line"/>
      <point x="200" y="6"/>
      <point x="360" y="-25"/>
    </contour>
    <contour>
      <point x="637" y="1476" type="move" name="top"/>
    </contour>
  </outline>
</glyph>
<glyph name="K" format="1">
  <advance width="1470"/>
  <unicode hex="004B"/>
  <outline>
    <contour>
      <point x="212" y="0" type="line"/>
      <point x="509" y="0" type="line"/>
      <point x="509" y="541" type="line"/>
      <point x="648" y="679" type="line"/>
      <point x="1113" y="0" type="line"/>
      <point x="1448" y="0" type="line"/>
      <point x="894" y="804" type="line"/>
      <point x="1411" y="1476" type="line"/>
      <point x="1083" y="1476" type="line"/>
      <point x="509" y="760" type="line"/>
      <point x="509" y="1476" type="line"/>
      <point x="212" y="1476" type="line"/>
    </contour>
    <contour>
      <point x="782" y="0" type="move" name="bot"/>
    </contour>
    <contour>
      <point x="756" y="1476" type="move" name="top"/>
    </contour>
  </outline>
</glyph>
<glyph name="Y" format="1">
  <advance width="1340"/>
  <unicode hex="0059"/>
  <outline>
    <contour>
      <point x="527" y="0" type="line"/>
      <point x="823" y="0" type="line"/>
      <point x="823" y="567" type="line"/>
      <point x="1322" y="1476" type="line"/>
      <point x="1022" y="1476" type="line"/>
      <point x="677" y="859" type="line"/>
      <point x="331" y="1476" type="line"/>
      <point x="18" y="1476" type="line"/>
      <point x="527" y="567" type="line"/>
    </contour>
    <contour>
      <point x="694" y="1476" type="move" name="top"/>
    </contour>
  </outline>
</glyph>
<glyph name="c" format="1">
  <advance width="1158"/>
  <unicode hex="0063"/>
  <outline>
    <contour>
      <point x="589" y="-23" type="curve" smooth="yes"/>
      <point x="934" y="-23"/>
      <point x="1021" y="77"/>
      <point x="1027" y="380" type="curve"/>
      <point x="773" y="380" type="line"/>
      <point x="773" y="197"/>
      <point x="740" y="168"/>
      <point x="595" y="168" type="curve" smooth="yes"/>
      <point x="471" y="168"/>
      <point x="412" y="207"/>
      <point x="412" y="322" type="curve" smooth="yes"/>
      <point x="412" y="756" type="line" smooth="yes"/>
      <point x="412" y="867"/>
      <point x="479" y="907"/>
      <point x="595" y="907" type="curve" smooth="yes"/>
      <point x="738" y="907"/>
      <point x="771" y="874"/>
      <point x="772" y="679" type="curve"/>
      <point x="1028" y="699" type="line"/>
      <point x="1028" y="1007"/>
      <point x="877" y="1097"/>
      <point x="585" y="1097" type="curve" smooth="yes"/>
      <point x="304" y="1097"/>
      <point x="140" y="972"/>
      <point x="140" y="757" type="curve" smooth="yes"/>
      <point x="140" y="327" type="line" smooth="yes"/>
      <point x="140" y="140"/>
      <point x="222" y="-23"/>
    </contour>
    <contour>
      <point x="591" y="0" type="move" name="bot"/>
    </contour>
    <contour>
      <point x="612" y="1074" type="move" name="top"/>
    </contour>
  </outline>
</glyph>
<glyph name="n" format="1">
  <advance width="1272"/>
  <unicode hex="006E"/>
  <outline>
    <contour>
      <point x="168" y="0" type="line"/>
      <point x="440" y="0" type="line"/>
      <point x="440" y="735" type="line" smooth="yes"/>
      <point x="440" y="840"/>
      <point x="551" y="894"/>
      <point x="649" y="894" type="curve" smooth="yes"/>
      <point x="734" y="894"/>
      <point x="838" y="868"/>
      <point x="838" y="755" type="curve" smooth="yes"/>
      <point x="838" y="0" type="line"/>
      <point x="1110" y="0" type="line"/>
      <point x="1110" y="770" type="line" smooth="yes"/>
      <point x="1110" y="951"/>
      <point x="1005" y="1090"/>
      <point x="799" y="1098" type="curve" smooth="yes"/>
      <point x="580" y="1107"/>
      <point x="463" y="999"/>
      <point x="440" y="979" type="curve"/>
      <point x="440" y="1074" type="line"/>
      <point x="168" y="1074" type="line"/>
    </contour>
    <contour>
      <point x="664" y="0" type="move" name="bot"/>
    </contour>
    <contour>
      <point x="679" y="1074" type="move" name="top"/>
    </contour>
  </outline>
</glyph>
<glyph name="o" format="1">
  <advance width="1212"/>
  <unicode hex="006F"/>
  <outline>
    <contour>
      <point x="606" y="166" type="curve" smooth="yes"/>
      <point x="481" y="166"/>
      <point x="412" y="204"/>
      <point x="412" y="313" type="curve" smooth="yes"/>
      <point x="412" y="760" type="line" smooth="yes"/>
      <point x="412" y="869"/>
      <point x="488" y="907"/>
      <point x="606" y="907" type="curve" smooth="yes"/>
      <point x="729" y="907"/>
      <point x="800" y="869"/>
      <point x="800" y="760" type="curve" smooth="yes"/>
      <point x="800" y="313" type="line" smooth="yes"/>
      <point x="800" y="204"/>
      <point x="722" y="166"/>
    </contour>
    <contour>
      <point x="606" y="-23" type="curve" smooth="yes"/>
      <point x="955" y="-23"/>
      <point x="1072" y="112"/>
      <point x="1072" y="325" type="curve" smooth="yes"/>
      <point x="1072" y="748" type="line" smooth="yes"/>
      <point x="1072" y="967"/>
      <point x="899" y="1097"/>
      <point x="606" y="1097" type="curve" smooth="yes"/>
      <point x="311" y="1097"/>
      <point x="140" y="967"/>
      <point x="140" y="748" type="curve" smooth="yes"/>
      <point x="140" y="325" type="line" smooth="yes"/>
      <point x="140" y="111"/>
      <point x="267" y="-23"/>
    </contour>
    <contour>
      <point x="608" y="0" type="move" name="bot"/>
    </contour>
    <contour>
      <point x="673" y="0" type="move" name="ogonek"/>
    </contour>
    <contour>
      <point x="608" y="1074" type="move" name="top"/>
    </contour>
  </outline>
</glyph>
<glyph name="r" format="1">
  <advance width="855"/>
  <unicode hex="0072"/>
  <outline>
    <contour>
      <point x="160" y="0" type="line"/>
      <point x="432" y="0" type="line"/>
      <point x="432" y="720" type="line"/>
      <point x="453" y="806"/>
      <point x="667" y="852"/>
      <point x="805" y="859" type="curve"/>
      <point x="811" y="1090" type="line"/>
      <point x="721" y="1100"/>
      <point x="483" y="1045"/>
      <point x="432" y="946" type="curve"/>
      <point x="432" y="1074" type="line"/>
      <point x="160" y="1074" type="line"/>
    </contour>
    <contour>
      <point x="301" y="0" type="move" name="bot"/>
    </contour>
    <contour>
      <point x="542" y="1074" type="move" name="top"/>
    </contour>
  </outline>
</glyph>
<glyph name="y" format="1">
  <advance width="1120"/>
  <unicode hex="0079"/>
  <outline>
    <contour>
      <point x="169" y="-465" type="line"/>
      <point x="509" y="-435"/>
      <point x="585" y="-355"/>
      <point x="758" y="140" type="curve" smooth="yes"/>
      <point x="1084" y="1074" type="line"/>
      <point x="814" y="1074" type="line"/>
      <point x="591" y="353" type="line"/>
      <point x="312" y="1074" type="line"/>
      <point x="50" y="1074" type="line"/>
      <point x="454" y="36" type="line"/>
      <point x="392" y="-198"/>
      <point x="345" y="-239"/>
      <point x="149" y="-260" type="curve"/>
    </contour>
    <contour>
      <point x="579" y="1074" type="move" name="top"/>
    </contour>
  </outline>
</glyph>
<glyph name="acute" format="1">
  <advance width="554"/>
  <unicode hex="00B4"/>
  <outline>
    <contour>
      <point x="106" y="1218" type="line"/>
      <point x="255" y="1218" type="line"/>
      <point x="488" y="1583" type="line"/>
      <point x="220" y="1583" type="line"/>
    </contour>
    <contour>
      <point x="167" y="1074" type="move" name="_top"/>
    </contour>
  </outline>
</glyph>
<glyph name="paragraph" format="1">
  <advance width="1222"/>
  <unicode hex="00B6"/>
  <outline>
    <contour>
      <point x="447" y="0" type="line"/>
      <point x="619" y="0" type="line"/>
      <point x="619" y="1334" type="line"/>
      <point x="850" y="1334" type="line"/>
      <point x="850" y="0" type="line"/>
      <point x="1022" y="0" type="line"/>
      <point x="1022" y="1476" type="line"/>
      <point x="462" y="1476" type="line" smooth="yes"/>
      <point x="268" y="1476"/>
      <point x="95" y="1389"/>
      <point x="95" y="1173" type="curve" smooth="yes"/>
      <point x="95" y="963"/>
      <point x="253" y="859"/>
      <point x="447" y="858" type="curve"/>
    </contour>
  </outline>
</glyph>
<glyph name="onesuperior" format="1">
  <advance width="1127"/>
  <unicode hex="00B9"/>
  <outline>
    <contour>
      <point x="213" y="624" type="line"/>
      <point x="941" y="624" type="line"/>
      <point x="941" y="761" type="line"/>
      <point x="692" y="761" type="line"/>
      <point x="692" y="1556" type="line"/>
      <point x="557" y="1556" type="line"/>
      <point x="210" y="1509" type="line"/>
      <point x="227" y="1366" type="line"/>
      <point x="497" y="1401" type="line"/>
      <point x="497" y="761" type="line"/>
      <point x="213" y="761" type="line"/>
    </contour>
  </outline>
</glyph>
<glyph name="onehalf" format="1">
  <advance width="2579"/>
  <unicode hex="00BD"/>
  <outline>
    <contour>
      <point x="1723" y="-2" type="line"/>
      <point x="2370" y="-2" type="line"/>
      <point x="2370" y="160" type="line"/>
      <point x="1933" y="160" type="line"/>
      <point x="2166" y="386" type="line" smooth="yes"/>
      <point x="2284" y="501"/>
      <point x="2381" y="612"/>
      <point x="2381" y="767" type="curve" smooth="yes"/>
      <point x="2381" y="940"/>
      <point x="2295" y="1071"/>
      <point x="2025" y="1071" type="curve" smooth="yes"/>
      <point x="1740" y="1071"/>
      <point x="1652" y="958"/>
      <point x="1652" y="706" type="curve"/>
      <point x="1870" y="706" type="line"/>
      <point x="1870" y="860"/>
      <point x="1892" y="911"/>
      <point x="2027" y="911" type="curve" smooth="yes"/>
      <point x="2131" y="911"/>
      <point x="2168" y="863"/>
      <point x="2167" y="765" type="curve"/>
      <point x="2167" y="675"/>
      <point x="2120" y="606"/>
      <point x="2033" y="518" type="curve" smooth="yes"/>
      <point x="1678" y="159" type="line"/>
    </contour>
    <contour>
      <point x="131" y="422" type="line"/>
      <point x="856" y="422" type="line"/>
      <point x="856" y="569" type="line"/>
      <point x="610" y="569" type="line"/>
      <point x="610" y="1477" type="line"/>
      <point x="464" y="1477" type="line"/>
      <point x="128" y="1424" type="line"/>
      <point x="146" y="1279" type="line"/>
      <point x="398" y="1318" type="line"/>
      <point x="398" y="569" type="line"/>
      <point x="130" y="569" type="line"/>
    </contour>
    <contour>
      <point x="879" y="0" type="line"/>
      <point x="1053" y="0" type="line"/>
      <point x="1694" y="1505" type="line"/>
      <point x="1520" y="1505" type="line"/>
    </contour>
  </outline>
</glyph>
<glyph name="AE" format="1">
  <advance width="1834"/>
  <unicode hex="00C6"/>
  <outline>
    <contour>
      <point x="83" y="0" type="line"/>
      <point x="393" y="0" type="line"/>
      <point x="472" y="281" type="line"/>
      <point x="893" y="281" type="line"/>
      <point x="893" y="0" type="line"/>
      <point x="1710" y="0" type="line"/>
      <point x="1710" y="227" type="line"/>
      <point x="1173" y="227" type="line"/>
      <point x="1173" y="645" type="line"/>
      <point x="1630" y="645" type="line"/>
      <point x="1630" y="858" type="line"/>
      <point x="1173" y="858" type="line"/>
      <point x="1173" y="1249" type="line"/>
      <point x="1700" y="1249" type="line"/>
      <point x="1700" y="1477" type="line"/>
      <point x="539" y="1477" type="line"/>
    </contour>
    <contour>
      <point x="527" y="477" type="line"/>
      <point x="757" y="1249" type="line"/>
      <point x="893" y="1249" type="line"/>
      <point x="893" y="477" type="line"/>
    </contour>
    <contour>
      <point x="1096" y="1476" type="move" name="top"/>
    </contour>
  </outline>
</glyph>
<glyph name="dotlessi" format="1">
  <advance width="570"/>
  <unicode hex="0131"/>
  <outline>
    <contour>
      <point x="170" y="0" type="line"/>
      <point x="421" y="0" type="line"/>
      <point x="421" y="1074" type="line"/>
      <point x="170" y="1074" type="line"/>
    </contour>
    <contour>
      <point x="309" y="0" type="move" name="ogonek"/>
    </contour>
    <contour>
      <point x="303" y="1074" type="move" name="top"/>
    </contour>
  </outline>
</glyph>
<glyph name="lslash" format="1">
  <advance width="708"/>
  <unicode hex="0142"/>
  <outline>
    <contour>
      <point x="25" y="680" type="line"/>
      <point x="599" y="915" type="line"/>
      <point x="599" y="1059" type="line"/>
      <point x="25" y="823" type="line"/>
    </contour>
    <component base="l"/>
  </outline>
</glyph>
<glyph name="breve" format="1">
  <advance width="512"/>
  <unicode hex="02D8"/>
  <outline>
    <contour>
      <point x="256" y="1217" type="curve" smooth="yes"/>
      <point x="384" y="1217"/>
      <point x="512" y="1276"/>
      <point x="512" y="1476" type="curve"/>
      <point x="368" y="1476" type="line"/>
      <point x="368" y="1400"/>
      <point x="312" y="1376"/>
      <point x="256" y="1376" type="curve" smooth="yes"/>
      <point x="200" y="1376"/>
      <point x="144" y="1400"/>
      <point x="144" y="1476" type="curve"/>
      <point x="0" y="1476" type="line"/>
      <point x="0" y="1276"/>
      <point x="128" y="1217"/>
    </contour>
    <contour>
      <point x="267" y="1074" type="move" name="_top"/>
    </contour>
  </outline>
</glyph>
<glyph name="Ohm" format="1">
  <advance width="1634"/>
  <unicode hex="2126"/>
  <outline>
    <contour>
      <point x="1488" y="1418"/>
      <point x="1211" y="1489"/>
      <point x="817" y="1489" type="curve"/>
      <point x="433" y="1489"/>
      <point x="146" y="1418"/>
      <point x="146" y="746" type="curve"/>
      <point x="146" y="458"/>
      <point x="280" y="296"/>
      <point x="421" y="206" type="curve"/>
      <point x="167" y="206" type="line"/>
      <point x="167" y="0" type="line"/>
      <point x="735" y="0" type="line"/>
      <point x="735" y="192" type="line"/>
      <point x="512" y="305"/>
      <point x="454" y="447"/>
      <point x="454" y="779" type="curve"/>
      <point x="454" y="1231"/>
      <point x="584" y="1271"/>
      <point x="817" y="1271" type="curve"/>
      <point x="1060" y="1271"/>
      <point x="1180" y="1231"/>
      <point x="1180" y="779" type="curve"/>
      <point x="1180" y="447"/>
      <point x="1122" y="305"/>
      <point x="899" y="192" type="curve"/>
      <point x="899" y="0" type="line"/>
      <point x="1467" y="0" type="line"/>
      <point x="1467" y="206" type="line"/>
      <point x="1213" y="206" type="line"/>
      <point x="1354" y="296"/>
      <point x="1488" y="458"/>
      <point x="1488" y="746" type="curve"/>
    </contour>
  </outline>
</glyph>
<glyph name="notequal" format="1">
  <advance width="919"/>
  <unicode hex="2260"/>
  <outline>
    <contour>
      <point x="126" y="150" type="line"/>
      <point x="299" y="150" type="line"/>
      <point x="738" y="1094" type="line"/>
      <point x="565" y="1094" type="line"/>
    </contour>
    <component base="equal"/>
  </outline>
</glyph>
